<svg xmlns="http://www.w3.org/2000/svg" style="display: none;"><symbol id="logo" viewBox="0 0 561 561"><path d="M170.5 64.6c-60 28.9-109.5 53.1-110.1 53.7-.7.7-13.1 53.6-27.8 117.7C18 300.1 5.8 353.4 5.5 354.5 5.1 356 19.6 374.8 66 433c33.6 42.1 67.9 85.1 76.3 95.7l15.2 19.2 122.5-.2 122.5-.2 67.8-85c37.2-46.8 71.5-89.7 76-95.5l8.3-10.5-27-118.7c-14.9-65.3-27.5-119.2-28.1-119.7-.8-.8-219.4-106.2-219.8-106-.1 0-49.2 23.7-109.2 52.5zm216.4 7.7l106.4 51.2 26.4 115c22.8 99.8 26.1 115.3 25.1 117.3-.7 1.2-33.9 43.1-73.8 93.2l-72.5 90.9H280l-118.5.1-13-16.3C58.9 411.5 14 354.9 14 354c0-2.3 52.2-229.5 52.9-230.2.9-1 211.3-102.6 212.6-102.7.6 0 48.9 23 107.4 51.2z"></path>      <path d="M285.2 280.2l.3 98.3h8l.2-85.5c.2-47 .3-86.2.3-87 0-2.5 2.1 1.5 11 20.5 4.6 9.9 10.7 22.9 13.6 29 4.6 9.8 7.8 16.7 23.4 50 11.6 24.9 14.4 30.5 15.1 29.8.7-.7 14.3-28.9 24.7-51.3 5-10.8 11-23.6 19.5-41.5 4.4-9.4 9.9-21.1 12.2-26.1 2.4-5 4.8-9.4 5.4-9.8.8-.5 1 20.7.9 81.1l-.3 81.8-55.2.3-55.3.2v4c0 3.3.4 4.1 2.3 4.5 1.2.3 28.1.4 59.7.3l57.5-.3v-196l-3-.3c-1.6-.2-3.8.3-4.7 1-1 .7-7.2 13-13.9 27.3-11 23.6-19 40.6-32.4 69-2.5 5.5-7.4 15.8-10.7 23-3.4 7.1-6.3 13.2-6.5 13.5-.6.7-2-1.8-7.9-14.5-8.6-18.4-25.9-55.4-30.9-66-4.9-10.3-7.6-16.1-16.4-35-8.9-19.1-8-18-12.9-18.3l-4.2-.3.2 98.3zm-105.6-95.4c-.3.6-2.1 5.2-4 10.4-4.6 12.8-19.5 53.6-25.1 68.8-4.5 12.3-20 54.7-23.6 64.5-1 2.7-5.4 14.9-9.8 27-8.3 22.6-8.4 23.5-3.6 23.5 4.4 0 2.4 4.7 41-101.5 1.8-5 4-10.8 4.8-13 .9-2.2 5.5-14.8 10.2-28 9.6-26.4 10.3-28.1 11.5-26.9.5.5 3.8 9 7.3 18.9 3.6 9.9 13.1 36 21.2 58s15.5 42.2 16.5 45c1 2.7 4.3 11.9 7.4 20.4 3.1 8.4 5.6 16 5.6 16.7 0 1.2-8.4 1.4-51.1 1.4h-51l.3 4.2.3 4.3 55.8.3c30.7.1 56.4-.1 57.1-.5 1-.6-.4-5.5-6-20.8-4.1-11-8.2-22.5-9.3-25.5-3.7-10.3-20.1-55.5-22.1-60.5-1-2.8-6.9-18.7-13-35.5s-11.8-32.3-12.6-34.4c-.8-2.2-2.5-6.7-3.6-10-2.2-6.7-3.3-8.3-4.2-6.8z"></path></symbol><symbol id="linkedin" viewBox="0 0 512 512"><title>linkedin</title><path d="m437 0h-362c-41.351562 0-75 33.648438-75 75v362c0 41.351562 33.648438 75 75 75h362c41.351562 0 75-33.648438 75-75v-362c0-41.351562-33.648438-75-75-75zm-256 406h-60v-210h60zm0-240h-60v-60h60zm210 240h-60v-120c0-16.539062-13.460938-30-30-30s-30 13.460938-30 30v120h-60v-210h60v11.308594c15.71875-4.886719 25.929688-11.308594 45-11.308594 40.691406.042969 75 36.546875 75 79.6875zm0 0"/></symbol><symbol id="github" viewBox="0 0 512 512"><title>github</title><path d="m256 0c-140.609375 0-256 115.390625-256 256 0 119.988281 84.195312 228.984375 196 256v-84.695312c-11.078125 2.425781-21.273438 2.496093-32.550781-.828126-15.128907-4.464843-27.421875-14.542968-36.546875-29.910156-5.816406-9.8125-16.125-20.453125-26.878906-19.671875l-2.636719-29.882812c23.253906-1.992188 43.371093 14.167969 55.3125 34.230469 5.304687 8.921874 11.410156 14.152343 19.246093 16.464843 7.574219 2.230469 15.707032 1.160157 25.183594-2.1875 2.378906-18.972656 11.070313-26.074219 17.636719-36.074219v-.015624c-66.679687-9.945313-93.253906-45.320313-103.800781-73.242188-13.976563-37.074219-6.476563-83.390625 18.238281-112.660156.480469-.570313 1.347656-2.0625 1.011719-3.105469-11.332032-34.230469 2.476562-62.546875 2.984375-65.550781 13.078125 3.867187 15.203125-3.890625 56.808593 21.386718l7.191407 4.320313c3.007812 1.792969 2.0625.769531 5.070312.542969 17.371094-4.71875 35.683594-7.324219 53.726563-7.558594 18.179687.234375 36.375 2.839844 54.464844 7.75l2.328124.234375c-.203124-.03125.632813-.148437 2.035157-.984375 51.972656-31.480469 50.105469-21.191406 64.042969-25.722656.503906 3.007812 14.128906 31.785156 2.917968 65.582031-1.511718 4.65625 45.058594 47.300781 19.246094 115.753906-10.546875 27.933594-37.117188 63.308594-103.796875 73.253907v.015624c8.546875 13.027344 18.816406 19.957032 18.761719 46.832032v105.722656c111.808594-27.015625 196-136.011719 196-256 .003906-140.609375-115.386719-256-255.996094-256zm0 0"/></symbol><symbol id="twitter" viewBox="0 -47 512.00203 512"><title>twitter</title><path d="m191.011719 419.042969c-22.140625 0-44.929688-1.792969-67.855469-5.386719-40.378906-6.335938-81.253906-27.457031-92.820312-33.78125l-30.335938-16.585938 32.84375-10.800781c35.902344-11.804687 57.742188-19.128906 84.777344-30.597656-27.070313-13.109375-47.933594-36.691406-57.976563-67.175781l-7.640625-23.195313 6.265625.957031c-5.941406-5.988281-10.632812-12.066406-14.269531-17.59375-12.933594-19.644531-19.78125-43.648437-18.324219-64.21875l1.4375-20.246093 12.121094 4.695312c-5.113281-9.65625-8.808594-19.96875-10.980469-30.777343-5.292968-26.359376-.863281-54.363282 12.476563-78.851563l10.558593-19.382813 14.121094 16.960938c44.660156 53.648438 101.226563 85.472656 168.363282 94.789062-2.742188-18.902343-.6875-37.144531 6.113281-53.496093 7.917969-19.039063 22.003906-35.183594 40.722656-46.691407 20.789063-12.777343 46-18.96875 70.988281-17.433593 26.511719 1.628906 50.582032 11.5625 69.699219 28.746093 9.335937-2.425781 16.214844-5.015624 25.511719-8.515624 5.59375-2.105469 11.9375-4.496094 19.875-7.230469l29.25-10.078125-19.074219 54.476562c1.257813-.105468 2.554687-.195312 3.910156-.253906l31.234375-1.414062-18.460937 25.230468c-1.058594 1.445313-1.328125 1.855469-1.703125 2.421875-1.488282 2.242188-3.339844 5.03125-28.679688 38.867188-6.34375 8.472656-9.511718 19.507812-8.921875 31.078125 2.246094 43.96875-3.148437 83.75-16.042969 118.234375-12.195312 32.625-31.09375 60.617187-56.164062 83.199219-31.023438 27.9375-70.582031 47.066406-117.582031 56.847656-23.054688 4.796875-47.8125 7.203125-73.4375 7.203125zm0 0"/></symbol><symbol id="right-arrow-angle" viewBox="0 0 792.033 792.033"><title>right-arrow-angle</title><path d="M617.858,370.896L221.513,9.705c-13.006-12.94-34.099-12.94-47.105,0c-13.006,12.939-13.006,33.934,0,46.874 l372.447,339.438L174.441,735.454c-13.006,12.94-13.006,33.935,0,46.874s34.099,12.939,47.104,0l396.346-361.191 c6.932-6.898,9.904-16.043,9.441-25.087C627.763,386.972,624.792,377.828,617.858,370.896z"/></symbol><symbol id="left-arrow-line-symbol" viewBox="0 0 791.966 791.967"><title>left-arrow-line-symbol</title><path d="M245.454,396.017L617.077,56.579c12.973-12.94,12.973-33.934,0-46.874c-12.973-12.94-34.033-12.94-47.006,0 L174.615,370.896c-6.932,6.899-9.87,16.076-9.408,25.087c-0.462,9.045,2.476,18.188,9.408,25.088l395.456,361.19 c12.973,12.94,34.033,12.94,47.006,0c12.973-12.939,12.973-33.934,0-46.873L245.454,396.017z"/></symbol></svg>