<svg xmlns="http://www.w3.org/2000/svg" style="display: none;"><symbol version="1.0" xmlns="http://www.w3.org/2000/svg" viewBox="0 0 1080 1080" id="logo"><path d="M683.5 272.9c-.6.4-49.8 24.3-109.5 53.1-59.7 28.7-108.7 52.6-109 53.1-.3.5-12.6 54.2-27.4 119.3l-26.8 118.5 17.3 21.8c9.6 12.1 43.7 54.8 75.9 95.1l58.4 73.2h245.5l75.3-94.6c41.4-52 75.4-95.1 75.5-95.7.3-1.3-53.1-237.5-53.8-238.1-.2-.2-49.2-23.8-108.9-52.6-59.7-28.7-108.9-52.6-109.4-53.1-1.2-1.1-1.9-1.1-3.1 0zM787 342.7l101.4 48.8L913.7 500c13.8 59.7 25.2 109.3 25.2 110.3.1 1-31.5 41.4-70.1 89.8L798.6 788H572.1l-69.7-87.3c-38.3-47.9-70-87.7-70.4-88.2-.8-1 48.2-217.8 49.7-220.3.8-1.3 200.7-98 202.9-98.1.6-.1 46.7 21.8 102.4 48.6z"></path><path d="M569.1 460.8c-.5 1-9.4 24.3-19.6 51.8-10.3 27.4-23.6 63-29.6 79S509 621 509 621.4c0 .3 10.7.5 23.7.4l23.7-.3 2.4-8c1.3-4.4 3.5-11.7 4.8-16.3l2.5-8.2h20.2c11.1 0 20.8.4 21.5.9.8.5 3.6 7.8 6.2 16.2l4.8 15.4 22.8.3c12.5.1 23.1-.1 23.5-.5.4-.5-5.4-17-12.7-36.8-7.4-19.8-20.2-54-28.4-76.1-8.2-22-15.8-42.1-16.9-44.7l-2-4.7h-17.5c-15.9 0-17.6.2-18.5 1.8zm23.2 63.7c6.7 23.4 8.9 32.6 8.2 34.3-.5 1.3-2.5 1.4-13.7.9-7.2-.4-13.3-.8-13.5-1-.2-.3 2.6-11 6.2-23.8 8.1-28.8 7.6-27.1 8-26.7.1.2 2.3 7.5 4.8 16.3zm85.7 16V622l22.3-.2 22.2-.3.5-40.5.5-40.5 2.9 5.5c1.6 3 7.3 15.1 12.7 26.9 5.4 11.8 10.3 21.9 10.8 22.4 1.4 1.4 19.1 2.1 22.1.9 2.1-.8 4.7-5.7 15-28.1 7.8-17 12.7-26.6 13.2-25.8.4.6.8 18.9.8 40.5V622l22.3-.2 22.2-.3v-162l-24.1-.3-24.1-.2-11.3 24.7c-6.2 13.7-13.8 30.2-16.8 36.8-3 6.6-6 12.6-6.7 13.3-.9 1-2.1-.9-5.8-9-22.4-49.6-27.9-61.5-29.2-63.5L726 459h-48v81.5z"></path></symbol><symbol id="linkedin" viewBox="0 0 512 512"><title>linkedin</title><path d="m437 0h-362c-41.351562 0-75 33.648438-75 75v362c0 41.351562 33.648438 75 75 75h362c41.351562 0 75-33.648438 75-75v-362c0-41.351562-33.648438-75-75-75zm-256 406h-60v-210h60zm0-240h-60v-60h60zm210 240h-60v-120c0-16.539062-13.460938-30-30-30s-30 13.460938-30 30v120h-60v-210h60v11.308594c15.71875-4.886719 25.929688-11.308594 45-11.308594 40.691406.042969 75 36.546875 75 79.6875zm0 0"/></symbol><symbol id="github" viewBox="0 0 512 512"><title>github</title><path d="m256 0c-140.609375 0-256 115.390625-256 256 0 119.988281 84.195312 228.984375 196 256v-84.695312c-11.078125 2.425781-21.273438 2.496093-32.550781-.828126-15.128907-4.464843-27.421875-14.542968-36.546875-29.910156-5.816406-9.8125-16.125-20.453125-26.878906-19.671875l-2.636719-29.882812c23.253906-1.992188 43.371093 14.167969 55.3125 34.230469 5.304687 8.921874 11.410156 14.152343 19.246093 16.464843 7.574219 2.230469 15.707032 1.160157 25.183594-2.1875 2.378906-18.972656 11.070313-26.074219 17.636719-36.074219v-.015624c-66.679687-9.945313-93.253906-45.320313-103.800781-73.242188-13.976563-37.074219-6.476563-83.390625 18.238281-112.660156.480469-.570313 1.347656-2.0625 1.011719-3.105469-11.332032-34.230469 2.476562-62.546875 2.984375-65.550781 13.078125 3.867187 15.203125-3.890625 56.808593 21.386718l7.191407 4.320313c3.007812 1.792969 2.0625.769531 5.070312.542969 17.371094-4.71875 35.683594-7.324219 53.726563-7.558594 18.179687.234375 36.375 2.839844 54.464844 7.75l2.328124.234375c-.203124-.03125.632813-.148437 2.035157-.984375 51.972656-31.480469 50.105469-21.191406 64.042969-25.722656.503906 3.007812 14.128906 31.785156 2.917968 65.582031-1.511718 4.65625 45.058594 47.300781 19.246094 115.753906-10.546875 27.933594-37.117188 63.308594-103.796875 73.253907v.015624c8.546875 13.027344 18.816406 19.957032 18.761719 46.832032v105.722656c111.808594-27.015625 196-136.011719 196-256 .003906-140.609375-115.386719-256-255.996094-256zm0 0"/></symbol><symbol id="twitter" viewBox="0 -47 512.00203 512"><title>twitter</title><path d="m191.011719 419.042969c-22.140625 0-44.929688-1.792969-67.855469-5.386719-40.378906-6.335938-81.253906-27.457031-92.820312-33.78125l-30.335938-16.585938 32.84375-10.800781c35.902344-11.804687 57.742188-19.128906 84.777344-30.597656-27.070313-13.109375-47.933594-36.691406-57.976563-67.175781l-7.640625-23.195313 6.265625.957031c-5.941406-5.988281-10.632812-12.066406-14.269531-17.59375-12.933594-19.644531-19.78125-43.648437-18.324219-64.21875l1.4375-20.246093 12.121094 4.695312c-5.113281-9.65625-8.808594-19.96875-10.980469-30.777343-5.292968-26.359376-.863281-54.363282 12.476563-78.851563l10.558593-19.382813 14.121094 16.960938c44.660156 53.648438 101.226563 85.472656 168.363282 94.789062-2.742188-18.902343-.6875-37.144531 6.113281-53.496093 7.917969-19.039063 22.003906-35.183594 40.722656-46.691407 20.789063-12.777343 46-18.96875 70.988281-17.433593 26.511719 1.628906 50.582032 11.5625 69.699219 28.746093 9.335937-2.425781 16.214844-5.015624 25.511719-8.515624 5.59375-2.105469 11.9375-4.496094 19.875-7.230469l29.25-10.078125-19.074219 54.476562c1.257813-.105468 2.554687-.195312 3.910156-.253906l31.234375-1.414062-18.460937 25.230468c-1.058594 1.445313-1.328125 1.855469-1.703125 2.421875-1.488282 2.242188-3.339844 5.03125-28.679688 38.867188-6.34375 8.472656-9.511718 19.507812-8.921875 31.078125 2.246094 43.96875-3.148437 83.75-16.042969 118.234375-12.195312 32.625-31.09375 60.617187-56.164062 83.199219-31.023438 27.9375-70.582031 47.066406-117.582031 56.847656-23.054688 4.796875-47.8125 7.203125-73.4375 7.203125zm0 0"/></symbol><symbol id="right-arrow-angle" viewBox="0 0 792.033 792.033"><title>right-arrow-angle</title><path d="M617.858,370.896L221.513,9.705c-13.006-12.94-34.099-12.94-47.105,0c-13.006,12.939-13.006,33.934,0,46.874 l372.447,339.438L174.441,735.454c-13.006,12.94-13.006,33.935,0,46.874s34.099,12.939,47.104,0l396.346-361.191 c6.932-6.898,9.904-16.043,9.441-25.087C627.763,386.972,624.792,377.828,617.858,370.896z"/></symbol><symbol id="left-arrow-line-symbol" viewBox="0 0 791.966 791.967"><title>left-arrow-line-symbol</title><path d="M245.454,396.017L617.077,56.579c12.973-12.94,12.973-33.934,0-46.874c-12.973-12.94-34.033-12.94-47.006,0 L174.615,370.896c-6.932,6.899-9.87,16.076-9.408,25.087c-0.462,9.045,2.476,18.188,9.408,25.088l395.456,361.19 c12.973,12.94,34.033,12.94,47.006,0c12.973-12.939,12.973-33.934,0-46.873L245.454,396.017z"/></symbol></svg>