<svg xmlns="http://www.w3.org/2000/svg" style="display: none;"><symbol version="1.0" xmlns="http://www.w3.org/2000/svg" viewBox="410 265 550 550" id="logo"><path d="M683.5 272.9c-.6.4-49.8 24.3-109.5 53.1-59.7 28.7-108.7 52.6-109 53.1-.3.5-12.6 54.2-27.4 119.3l-26.8 118.5 17.3 21.8c9.6 12.1 43.7 54.8 75.9 95.1l58.4 73.2h245.5l75.3-94.6c41.4-52 75.4-95.1 75.5-95.7.3-1.3-53.1-237.5-53.8-238.1-.2-.2-49.2-23.8-108.9-52.6-59.7-28.7-108.9-52.6-109.4-53.1-1.2-1.1-1.9-1.1-3.1 0zM787 342.7l101.4 48.8L913.7 500c13.8 59.7 25.2 109.3 25.2 110.3.1 1-31.5 41.4-70.1 89.8L798.6 788H572.1l-69.7-87.3c-38.3-47.9-70-87.7-70.4-88.2-.8-1 48.2-217.8 49.7-220.3.8-1.3 200.7-98 202.9-98.1.6-.1 46.7 21.8 102.4 48.6z"></path><path d="M569.1 460.8c-.5 1-9.4 24.3-19.6 51.8-10.3 27.4-23.6 63-29.6 79S509 621 509 621.4c0 .3 10.7.5 23.7.4l23.7-.3 2.4-8c1.3-4.4 3.5-11.7 4.8-16.3l2.5-8.2h20.2c11.1 0 20.8.4 21.5.9.8.5 3.6 7.8 6.2 16.2l4.8 15.4 22.8.3c12.5.1 23.1-.1 23.5-.5.4-.5-5.4-17-12.7-36.8-7.4-19.8-20.2-54-28.4-76.1-8.2-22-15.8-42.1-16.9-44.7l-2-4.7h-17.5c-15.9 0-17.6.2-18.5 1.8zm23.2 63.7c6.7 23.4 8.9 32.6 8.2 34.3-.5 1.3-2.5 1.4-13.7.9-7.2-.4-13.3-.8-13.5-1-.2-.3 2.6-11 6.2-23.8 8.1-28.8 7.6-27.1 8-26.7.1.2 2.3 7.5 4.8 16.3zm85.7 16V622l22.3-.2 22.2-.3.5-40.5.5-40.5 2.9 5.5c1.6 3 7.3 15.1 12.7 26.9 5.4 11.8 10.3 21.9 10.8 22.4 1.4 1.4 19.1 2.1 22.1.9 2.1-.8 4.7-5.7 15-28.1 7.8-17 12.7-26.6 13.2-25.8.4.6.8 18.9.8 40.5V622l22.3-.2 22.2-.3v-162l-24.1-.3-24.1-.2-11.3 24.7c-6.2 13.7-13.8 30.2-16.8 36.8-3 6.6-6 12.6-6.7 13.3-.9 1-2.1-.9-5.8-9-22.4-49.6-27.9-61.5-29.2-63.5L726 459h-48v81.5z"></path></symbol></svg>