<svg version="1.0" xmlns="http://www.w3.org/2000/svg" width="748" height="748" viewBox="0 0 561 561">
  <path d="M170.5 64.6c-60 28.9-109.5 53.1-110.1 53.7-.7.7-13.1 53.6-27.8 117.7C18 300.1 5.8 353.4 5.5 354.5 5.1 356 19.6 374.8 66 433c33.6 42.1 67.9 85.1 76.3 95.7l15.2 19.2 122.5-.2 122.5-.2 67.8-85c37.2-46.8 71.5-89.7 76-95.5l8.3-10.5-27-118.7c-14.9-65.3-27.5-119.2-28.1-119.7-.8-.8-219.4-106.2-219.8-106-.1 0-49.2 23.7-109.2 52.5zm216.4 7.7l106.4 51.2 26.4 115c22.8 99.8 26.1 115.3 25.1 117.3-.7 1.2-33.9 43.1-73.8 93.2l-72.5 90.9H280l-118.5.1-13-16.3C58.9 411.5 14 354.9 14 354c0-2.3 52.2-229.5 52.9-230.2.9-1 211.3-102.6 212.6-102.7.6 0 48.9 23 107.4 51.2z"/>
  <path d="M285.2 280.2l.3 98.3h8l.2-85.5c.2-47 .3-86.2.3-87 0-2.5 2.1 1.5 11 20.5 4.6 9.9 10.7 22.9 13.6 29 4.6 9.8 7.8 16.7 23.4 50 11.6 24.9 14.4 30.5 15.1 29.8.7-.7 14.3-28.9 24.7-51.3 5-10.8 11-23.6 19.5-41.5 4.4-9.4 9.9-21.1 12.2-26.1 2.4-5 4.8-9.4 5.4-9.8.8-.5 1 20.7.9 81.1l-.3 81.8-55.2.3-55.3.2v4c0 3.3.4 4.1 2.3 4.5 1.2.3 28.1.4 59.7.3l57.5-.3v-196l-3-.3c-1.6-.2-3.8.3-4.7 1-1 .7-7.2 13-13.9 27.3-11 23.6-19 40.6-32.4 69-2.5 5.5-7.4 15.8-10.7 23-3.4 7.1-6.3 13.2-6.5 13.5-.6.7-2-1.8-7.9-14.5-8.6-18.4-25.9-55.4-30.9-66-4.9-10.3-7.6-16.1-16.4-35-8.9-19.1-8-18-12.9-18.3l-4.2-.3.2 98.3zM179.6 184.8c-.3.6-2.1 5.2-4 10.4-4.6 12.8-19.5 53.6-25.1 68.8-4.5 12.3-20 54.7-23.6 64.5-1 2.7-5.4 14.9-9.8 27-8.3 22.6-8.4 23.5-3.6 23.5 4.4 0 2.4 4.7 41-101.5 1.8-5 4-10.8 4.8-13 .9-2.2 5.5-14.8 10.2-28 9.6-26.4 10.3-28.1 11.5-26.9.5.5 3.8 9 7.3 18.9 3.6 9.9 13.1 36 21.2 58s15.5 42.2 16.5 45c1 2.7 4.3 11.9 7.4 20.4 3.1 8.4 5.6 16 5.6 16.7 0 1.2-8.4 1.4-51.1 1.4h-51l.3 4.2.3 4.3 55.8.3c30.7.1 56.4-.1 57.1-.5 1-.6-.4-5.5-6-20.8-4.1-11-8.2-22.5-9.3-25.5-3.7-10.3-20.1-55.5-22.1-60.5-1-2.8-6.9-18.7-13-35.5s-11.8-32.3-12.6-34.4c-.8-2.2-2.5-6.7-3.6-10-2.2-6.7-3.3-8.3-4.2-6.8z"/>
</svg>
