<svg version="1.0" xmlns="http://www.w3.org/2000/svg" width="1440" height="1440" viewBox="0 0 1080 1080">
  <path d="M445 262.3l-37.5 18.3-1.2 3.9c-.6 2.2-5 20.8-9.7 41.3l-8.4 37.2 26.4 33 26.4 33h84l26-32.6c14.3-18 26-33.3 26-34.1 0-1.6-17.8-81.5-18.2-81.8-1.9-1-75.8-36.5-76-36.4-.2 0-17.2 8.2-37.8 18.2zm73.1 5.8c18.4 8.8 33.9 16.6 34.5 17.2 1 1 17.7 72.2 17.7 75.2 0 .6-10.8 14.7-24.2 31.3L522 422h-78l-24.2-30.2c-13.3-16.6-24.1-31-24.1-31.9.3-3.1 16.3-72.4 17.1-73.8 1-1.8 66.9-33.9 69.8-34 1.1-.1 17.1 7.1 35.5 16z"/>
  <path d="M432.9 335.8c-11 31.5-11 29.6.1 29l5.5-.3 1.9-5.8 1.8-5.7h14.7l1.6 5.2c.8 2.8 2.1 5.5 2.8 6 1.2.8 14.7 1.2 14.7.4 0-1-18-52.8-19-54.6-.9-1.7-2.1-2-7.8-2h-6.7l-9.6 27.8zm19-1.9c2.9 8.9 2.9 9.1-2.4 9.1-2.7 0-4.5-.5-4.5-1.1 0-1.7 4.1-15.2 4.5-14.7.2.1 1.2 3.2 2.4 6.7zM481 335.9c0 31.6-.8 29.1 9.1 29.1h5.9l.1-14.8v-14.7l4.9 10.2 4.9 10.3H513.6l4.7-10.3 4.6-10.2.1 14.2c0 16.4-.4 15.7 10.1 15.1l5.4-.3.3-25c.2-13.8 0-26.5-.3-28.3l-.6-3.3-8.1.3-8.1.3-5.6 12.2c-3.1 6.7-5.9 12.4-6.2 12.7-.3.4-2.8-4.2-5.5-10.1-7.3-16.3-6.3-15.3-15.5-15.3H481v27.9z"/>
</svg>